# AST/ASF file generated using VICON BodyLanguage
# -----------------------------------------------
:version 1.10
:name VICON
:units
  mass 1.0
  length 0.45
  angle deg
:documentation
   .ast/.asf automatically generated from VICON data using
   VICON BodyBuilder and BodyLanguage model FoxedUp or BRILLIANT.MOD
:root
   order TX TY TZ RX RY RZ
   axis XYZ
   position 0 0 0  
   orientation 0 0 0 
:bonedata
  begin
     id 1 
     name lhipjoint
     direction 0.682418 -0.694059 0.22932 
     length 2.25561 
     axis 0 0 0  XYZ
  end
  begin
     id 2 
     name lfemur
     direction 0.34202 -0.939693 0  
     length 6.96448  
     axis 0 0 20  XYZ
    dof rx ry rz
    limits (-160.0 20.0)
           (-70.0 70.0)
           (-60.0 70.0)
  end
  begin
     id 3 
     name ltibia
     direction 0.34202 -0.939693 0   
     length 6.88553   
     axis 0 0 20   XYZ
    dof rx
    limits (-10.0 170.0)
  end
  begin
     id 4 
     name lfoot
     direction 0.0723587 -0.198804 0.977364   
     length 1.88518   
     axis -90 7.62852e-016 20   XYZ
    dof rx rz
    limits (-45.0 90.0)
           (-70.0 20.0)
  end
  begin
     id 5 
     name ltoes
     direction 1.53558e-011 -4.21962e-011 1   
     length 0.952124   
     axis -90 7.62852e-016 20   XYZ
    dof rx
    limits (-90.0 20.0)
  end
  begin
     id 6 
     name rhipjoint
     direction -0.657603 -0.71533 0.236348   
     length 2.18854  
     axis 0 0 0  XYZ 
  end
  begin
     id 7 
     name rfemur
     direction -0.34202 -0.939693 0   
     length 6.86686   
     axis 0 0 -20   XYZ
    dof rx ry rz
    limits (-160.0 20.0)
           (-70.0 70.0)
           (-70.0 60.0)
  end
  begin
     id 8 
     name rtibia
     direction -0.34202 -0.939693 0   
     length 6.59503   
     axis 0 0 -20   XYZ
    dof rx
    limits (-10.0 170.0)
 end
 begin
     id 9 
     name rfoot
     direction -0.101977 -0.280179 0.954516   
     length 1.93723  
     axis -90 -7.62852e-016 -20   XYZ
    dof rx rz
    limits (-45.0 90.0)
           (-20.0 70.0)
  end
  begin
     id 10 
     name rtoes
     direction -1.53564e-011 -4.21897e-011 1   
     length 0.970315   
     axis -90 -7.62852e-016 -20   XYZ
    dof rx
    limits (-90.0 20.0)
  end
  begin
     id 11 
     name lowerback
     direction -0.0339559 0.999421 -0.00235966   
     length 1.88543   
     axis 0 0 0   XYZ
    dof rx ry rz
    limits (-20.0 45.0)
           (-30.0 30.0)
           (-30.0 30.0)
  end
  begin
     id 12 
     name upperback
     direction 0.00401003 0.999739 0.0224689   
     length 1.8856   
     axis 0 0 0   XYZ
    dof rx ry rz
    limits (-20.0 45.0)
           (-30.0 30.0)
           (-30.0 30.0)
  end
  begin
     id 13 
     name thorax
     direction 0.0198619 0.999546 0.0226536   
     length 1.88352   
     axis 0 0 0   XYZ
    dof rx ry rz
    limits (-20.0 45.0)
           (-30.0 30.0)
           (-30.0 30.0)
  end
  begin
     id 14 
     name lowerneck
     direction -0.0461848 0.998632 0.0245198   
     length 1.34895   
     axis 0 0 0   XYZ
    dof rx ry rz
    limits (-20.0 45.0)
           (-30.0 30.0)
           (-30.0 30.0)
  end
  begin
     id 15 
     name upperneck
     direction -0.0180627 0.994724 -0.100984   
     length 1.35214   
     axis 0 0 0   XYZ
    dof rx ry rz
    limits (-20.0 45.0)
           (-30.0 30.0)
           (-30.0 30.0)
  end
  begin
     id 16
     name head
     direction -0.00374772 0.999293 -0.037403  
     length 1.3568  
     axis 0 0 0   XYZ
    dof rx ry rz
    limits (-20.0 45.0)
           (-30.0 30.0)
           (-30.0 30.0)
  end
  begin
     id 17 
     name lclavicle
     direction 0.971773 0.191119 0.138311  
     length 2.84954  
     axis 0 0 0   XYZ
    dof ry rz
    limits (-20.0 10.0)
           (0.0 20.0)
  end
  begin
     id 18 
     name lhumerus
     direction 1 -4.4897e-011 -2.43761e-027   
     length 4.40919   
     axis 180 -30 -90   XYZ
    dof rx ry rz
    limits (-60.0 90.0)
           (-90.0 90.0)
           (-90.0 90.0)
  end
  begin
     id 19
     name lradius
     direction 1 -4.4896e-011 -9.1621e-027   
     length 3.03857   
     axis 180 -30 -90   XYZ
    dof rx
    limits (-10.0 170.0)
  end
  begin
     id 20
     name lwrist
     direction 1 -4.4896e-011 -1.41363e-026   
     length 1.51928   
     axis 1.07133e-014 90 90   XYZ
    dof ry
    limits (-180.0 0.0)
 end
  begin
     id 21 
     name lhand
     direction 1 -4.48978e-011 -2.82725e-026   
     length 0.523208   
     axis 1.80403e-014 90 90   XYZ
    dof rx rz
    limits (-90.0 90.0)
           (-45.0 45.0)
  end
  begin
     id 22 
     name lfingers
     direction 1 -4.48977e-011 -5.6545e-026   
     length 0.421824   
     axis 3.60806e-014 90 90   XYZ
    dof rx
    limits (0.0 90.0)
  end
  begin
     id 23
     name lthumb
     direction 0.707107 -6.34962e-011 0.707107   
     length 0.605657   
     axis -90 45 2.85299e-015   XYZ
    dof rx rz
    limits (-45.0 45.0)
           (-45.0 45.0)
  end
  begin
     id 24 
     name rclavicle
     direction -0.957247 0.24311 0.156766   
     length 3.12406  
     axis 0 0 0   XYZ 
    dof ry rz
    limits (-10.0 20.0)
           (-20.0 0.0)
  end
  begin
     id 25 
     name rhumerus
     direction -1 -4.48964e-011 -1.70632e-027  
     length 4.61969   
     axis 180 30 90   XYZ
    dof rx ry rz
    limits (-90.0 60.0)
           (-90.0 90.0)
           (-90.0 90.0)
  end
  begin
     id 26 
     name rradius
     direction -1 -4.48966e-011 -6.60395e-027   
     length 3.09382   
     axis 180 30 90   XYZ
    dof rx
    limits (-10.0 170.0)
  end
  begin
     id 27 
     name rwrist
     direction -1 -4.48963e-011 -1.41363e-026   
     length 1.54691   
     axis 1.07133e-014 -90 -90   XYZ
    dof ry
    limits (-180.0 0.0)
  end
  begin
     id 28
     name rhand
     direction -1 -4.49013e-011 -2.82725e-026   
     length 0.500896   
     axis 1.80403e-014 -90 -90   XYZ
    dof rx rz
    limits (-90.0 90.0)
           (-45.0 45.0)
  end
  begin
     id 29
     name rfingers
     direction -1 -4.48902e-011 -5.6545e-026   
     length 0.403835   
     axis 3.60806e-014 -90 -90   XYZ
    dof rx
    limits (0.0 90.0)
  end
  begin
     id 30
     name rthumb
     direction -0.707107 -6.34953e-011 0.707107   
     length 0.579829   
     axis -90 -45 -2.85299e-015   XYZ
    dof rx rz
    limits (-45.0 45.0)
           (-45.0 45.0)
  end
:hierarchy
  begin
    root lhipjoint rhipjoint lowerback
    lhipjoint lfemur
    lfemur ltibia
    ltibia lfoot
    lfoot ltoes
    rhipjoint rfemur
    rfemur rtibia
    rtibia rfoot
    rfoot rtoes
    lowerback upperback
    upperback thorax
    thorax lowerneck lclavicle rclavicle
    lowerneck upperneck
    upperneck head
    lclavicle lhumerus
    lhumerus lradius
    lradius lwrist
    lwrist lhand lthumb
    lhand lfingers
    rclavicle rhumerus
    rhumerus rradius
    rradius rwrist
    rwrist rhand rthumb
    rhand rfingers
  end

#!OML:ASF E:\madness\Project 1\Capture day 1\Session 1\Female1.ASF
:FULLY-SPECIFIED
:DEGREES
82
root 6.7297 15.7844 0.612359 -176.028 -80.1015 191.944
lowerback 12.5625 -1.21353 -4.75249
upperback 3.15312 -2.29182 1.1151
thorax -3.49143 -1.16378 4.20261
lowerneck -6.69753 4.40281 1.5679
upperneck 22.4255 5.55458 -1.55875
head 8.11965 2.37861 -0.318019
rclavicle 1.35174e-014 5.56597e-015
rhumerus -51.3757 -6.16928 -25.1355
rradius 137.369
rwrist -7.61951
rhand -19.8547 -33.4281
rfingers 7.12502
rthumb 6.48008 -63.3089
lclavicle 1.35174e-014 5.56597e-015
lhumerus -28.708 24.9425 27.9812
lradius 131.802
lwrist 2.7258
lhand -44.5665 -13.2612
lfingers 7.12502
lthumb -17.3665 15.9829
rfemur -38.0474 17.3422 7.49149
rtibia 32.2912
rfoot -10.8679 -11.1442
rtoes -8.89784
lfemur -30.7214 -8.86641 -12.4899
ltibia 41.6116
lfoot -19.4621 14.4006
ltoes -11.2211
83
root 6.77047 15.764 0.662603 -175.613 -80.0301 191.666
lowerback 12.7237 -1.57018 -5.14868
upperback 3.23989 -2.82157 1.18524
thorax -3.40804 -1.43042 4.5818
lowerneck -7.00814 4.58698 0.87862
upperneck 22.4283 5.81651 -1.10471
head 8.14453 2.48618 -0.0229029
rclavicle -3.57812e-014 5.56597e-015
rhumerus -51.4935 -7.43793 -23.041
rradius 137.572
rwrist -7.6512
rhand -16.5645 -29.8224
rfingers 7.12502
rthumb 9.65554 -59.5811
lclavicle -3.57812e-014 5.56597e-015
lhumerus -26.8856 24.9634 28.5326
lradius 131.787
lwrist 2.80028
lhand -44.272 -12.588
lfingers 7.12502
lthumb -17.083 16.681
rfemur -38.6696 17.6516 6.99792
rtibia 32.7052
rfoot -10.7569 -11.4016
rtoes -8.50574
lfemur -31.5044 -8.84368 -12.6193
ltibia 42.2093
lfoot -19.483 14.0359
ltoes -10.7815
84
root 6.80746 15.75 0.711917 -175.553 -79.935 191.358
lowerback 13.2643 -1.70667 -5.37431
upperback 3.35467 -3.07122 1.09982
thorax -3.54613 -1.55459 4.67968
lowerneck -7.00255 4.52855 0.508201
upperneck 22.2779 5.71723 -0.753322
head 8.06837 2.44502 0.143312
rclavicle -7.71285e-014 -1.66979e-014
rhumerus -52.3584 -7.97802 -22.0762
rradius 138.397
rwrist -9.50214
rhand -19.2052 -33.7397
rfingers 7.12502
rthumb 7.10706 -63.6004
lclavicle -7.71285e-014 -1.66979e-014
lhumerus -24.4884 24.3624 29.5708
lradius 131.609
lwrist 2.61954
lhand -44.3756 -12.0344
lfingers 7.12502
lthumb -17.1827 17.2259
rfemur -38.8147 18.0692 6.66245
rtibia 33.0742
rfoot -10.7843 -11.6874
rtoes -8.46169
lfemur -31.7398 -8.75492 -12.8342
ltibia 42.7932
lfoot -19.7772 13.5667
ltoes -9.57893
85
root 6.83912 15.736 0.763229 -175.576 -79.8102 191.016
lowerback 13.8361 -1.73523 -5.49421
upperback 3.56126 -3.17544 0.929387
thorax -3.63095 -1.61341 4.60699
lowerneck -7.1766 4.37474 0.521366
upperneck 22.1699 5.50202 -0.707944
head 8.06115 2.35231 0.140025
rclavicle -3.57812e-015 -8.74653e-015
rhumerus -53.3542 -9.11627 -20.8641
rradius 138.837
rwrist -10.825
rhand -20.0005 -35.5808
rfingers 7.12502
rthumb 6.33934 -65.4659
lclavicle -3.57812e-015 -8.74653e-015
lhumerus -21.8203 23.3917 30.8684
lradius 131.254
lwrist 2.25818
lhand -44.9231 -12.5363
lfingers 7.12502
lthumb -17.7097 16.6772
rfemur -38.7693 18.3949 6.41469
rtibia 33.3525
rfoot -10.9092 -11.8314
rtoes -8.35905
lfemur -31.7742 -8.59417 -13.1151
ltibia 43.3519
lfoot -20.0358 13.3513
ltoes -9.44036
86
root 6.87616 15.7154 0.809431 -175.318 -79.807 190.95
lowerback 13.851 -1.82599 -5.64139
upperback 3.58206 -3.32124 0.831623
thorax -3.5973 -1.68658 4.60922
lowerneck -7.32428 4.2186 0.547264
upperneck 22.3118 5.25433 -0.59782
head 8.1313 2.24268 0.154032
rclavicle -5.56597e-014 4.45278e-014
rhumerus -54.2821 -10.262 -19.5645
rradius 139.141
rwrist -11.6973
rhand -19.9533 -35.6813
rfingers 7.12502
rthumb 6.38487 -65.5651
lclavicle -5.56597e-014 4.45278e-014
lhumerus -19.5492 22.154 32.1212
lradius 130.906
lwrist 1.91601
lhand -45.2359 -12.9452
lfingers 7.12502
lthumb -18.0107 16.2409
rfemur -39.2737 18.5053 6.03282
rtibia 33.4826
rfoot -10.875 -12.0193
rtoes -7.56974
lfemur -32.4816 -8.40232 -13.1919
ltibia 43.8422
lfoot -20.2724 12.729
ltoes -8.09954
87
root 6.90682 15.701 0.852311 -175.682 -79.7146 191.441
lowerback 13.8102 -1.8856 -5.79369
upperback 3.58097 -3.42029 0.78385
thorax -3.55817 -1.73595 4.65744
lowerneck -7.12259 3.93109 0.392093
upperneck 22.3843 4.7865 -0.237566
head 8.10136 2.03717 0.251675
rclavicle 2.22639e-014 -4.77083e-014
rhumerus -55.0488 -11.1003 -18.5061
rradius 139.598
rwrist -12.7598
rhand -20.2463 -36.2758
rfingers 7.12502
rthumb 6.10202 -66.1679
lclavicle 2.22639e-014 -4.77083e-014
lhumerus -17.7613 20.809 33.2701
lradius 130.545
lwrist 1.66155
lhand -45.6664 -13.7567
lfingers 7.12502
lthumb -18.4248 15.3907
rfemur -39.6126 18.7558 5.7966
rtibia 33.49
rfoot -10.8032 -12.2259
rtoes -6.68473
lfemur -32.9877 -8.23431 -13.1414
ltibia 44.2591
lfoot -20.72 11.9395
ltoes -5.27055
88
root 6.92884 15.6869 0.897843 -177.007 -79.4692 192.603
lowerback 14.0052 -1.95379 -5.85898
upperback 3.63094 -3.53436 0.784903
thorax -3.59343 -1.79379 4.72232
lowerneck -6.836 3.56485 0.122177
upperneck 22.4722 4.1998 0.214884
head 8.05855 1.77186 0.387573
rclavicle -3.18055e-014 -3.49861e-014
rhumerus -55.4089 -11.7261 -17.8631
rradius 140.095
rwrist -13.7448
rhand -20.6783 -36.9368
rfingers 7.12502
rthumb 5.68497 -66.8405
lclavicle -3.18055e-014 -3.49861e-014
lhumerus -16.5265 19.5828 34.2763
lradius 130.241
lwrist 1.61493
lhand -45.9604 -15.3091
lfingers 7.12502
lthumb -18.7076 13.8113
rfemur -39.5667 19.2194 5.79132
rtibia 33.394
rfoot -10.8017 -12.3843
rtoes -6.62999
lfemur -33.0048 -8.01318 -13.0561
ltibia 44.6361
lfoot -21.0625 11.8246
ltoes -4.51203
89
root 6.94358 15.6697 0.949227 -178.349 -79.0621 193.598
lowerback 14.4568 -1.97518 -5.81618
upperback 3.61642 -3.58959 0.770071
thorax -3.851 -1.81282 4.71871
lowerneck -6.66598 3.27513 0.0734563
upperneck 22.6267 3.8397 -0.0368437
head 8.08391 1.56478 0.278063
rclavicle 6.36111e-015 3.18055e-015
rhumerus -55.6209 -12.2358 -17.3334
rradius 140.512
rwrist -14.1535
rhand -20.9922 -37.1087
rfingers 7.12502
rthumb 5.38184 -67.0203
lclavicle 6.36111e-015 3.18055e-015
lhumerus -15.8334 18.2955 35.3353
lradius 130.127
lwrist 1.878
lhand -45.0764 -15.9779
lfingers 7.12502
lthumb -17.8572 13.2223
rfemur -39.3069 19.7444 5.82988
rtibia 33.1976
rfoot -10.8422 -12.4117
rtoes -6.57869
lfemur -32.7197 -7.49326 -13.1742
ltibia 44.9973
lfoot -20.9109 12.6234
ltoes -7.68104
90
root 6.95885 15.654 1.00513 -179.565 -78.5712 194.613
lowerback 14.7059 -2.06905 -5.78789
upperback 3.65041 -3.72357 0.860476
thorax -3.92938 -1.87898 4.83405
lowerneck -6.94376 3.07337 -0.512705
upperneck 23.1455 3.60039 0.075201
head 8.2947 1.39567 0.399528
rclavicle 1.66979e-014 -7.79236e-014
rhumerus -55.1021 -12.839 -17.0397
rradius 140.741
rwrist -14.1759
rhand -21.0002 -37.0789
rfingers 7.12502
rthumb 5.37416 -66.9908
lclavicle 1.66979e-014 -7.79236e-014
lhumerus -15.8627 17.0704 36.3978
lradius 130.26
lwrist 1.45992
lhand -45.3338 -15.2121
lfingers 7.12502
lthumb -18.1048 13.9653
rfemur -39.2013 20.1262 5.87271
rtibia 32.9334
rfoot -10.8733 -12.2618
rtoes -6.00336
lfemur -32.681 -6.88111 -13.2653
ltibia 45.3822
lfoot -20.788 13.306
ltoes -10.8012
